# xmcd CD database file
#
# Track frame offsets:
#	182
#	13577
#	29720
#	41655
#	54227
#	66825
#	85507
#	99090
#	110707
#	120992
#	136295
#	153687
#	168815
#	182732
#	196882
#
# Disc length: 2769 seconds
#
# Revision: 2
# Processed by: cddbd v1.5.2PL0 Copyright (c) Steve Scherf et al.
# Submitted via: jetAudio 7
#
DISCID=bc0acf0f
DTITLE=Kenny Rogers - The Fabulous Kenny Rogers
DYEAR=1900
DGENRE=Country
TTITLE0=Ruby Don't Take Your Love To Town
TTITLE1=Tulsa Turnabout
TTITLE2=Elvira
TTITLE3=Reuben James
TTITLE4=Love Woman
TTITLE5=The King Of Oak Street
TTITLE6=Shine On Ruby Mountain
TTITLE7=Me and Bobby McGee
TTITLE8=Where Does Rosie Go
TTITLE9=For The Good Times
TTITLE10=Something's Burning
TTITLE11=Tell It All Brother
TTITLE12=I'm Gonna Sing You A Sad Song Susie
TTITLE13=Molly
TTITLE14=We All Got To Help Each Other
EXTD=
EXTT0=
EXTT1=
EXTT2=
EXTT3=
EXTT4=
EXTT5=
EXTT6=
EXTT7=
EXTT8=
EXTT9=
EXTT10=
EXTT11=
EXTT12=
EXTT13=
EXTT14=
PLAYORDER=
